Coordinates
version=1
nRows=5
nColumns=40
inDegrees=yes

Units are S.I. units (second, meters, Newtons, ...)
Angles are in degrees.

endheader
time	pelvis_tilt	pelvis_list	pelvis_rotation	pelvis_tx	pelvis_ty	pelvis_tz	hip_flexion_r	hip_adduction_r	hip_rotation_r	knee_angle_r	knee_angle_r_beta	ankle_angle_r	subtalar_angle_r	mtp_angle_r	hip_flexion_l	hip_adduction_l	hip_rotation_l	knee_angle_l	knee_angle_l_beta	ankle_angle_l	subtalar_angle_l	mtp_angle_l	lumbar_extension	lumbar_bending	lumbar_rotation	arm_flex_r	arm_add_r	arm_rot_r	elbow_flex_r	pro_sup_r	wrist_flex_r	wrist_dev_r	arm_flex_l	arm_add_l	arm_rot_l	elbow_flex_l	pro_sup_l	wrist_flex_l	wrist_dev_l
     38.92250000	     -6.70346481	     -3.92404162	      2.90543512	      1.03837173	      0.91953110	      0.46935328	     24.83868051	     -0.57495848	    -16.36547923	     19.77685491	     19.77685491	      4.16728894	     -3.27461276	     -4.42512815	     16.52406226	    -10.33209390	     -0.19793674	     47.59907955	     47.59907955	     11.85830810	    -15.87009758	     -1.89896155	    -11.48585039	      4.82505792	      2.94056181	     -2.94348819	    -15.33038384	      1.54584881	     29.71057477	     45.72759294	      0.00000000	      0.00000000	      5.76540898	    -10.68736285	    -12.50020209	     86.28242376	     47.05994337	      0.00000000	      0.00000000
     38.93457143	     -6.52128533	     -4.07312127	      3.01755417	      1.03760766	      0.92074337	      0.47198354	     23.96985599	     -0.21353814	    -16.68878243	     19.38890837	     19.38890837	      4.63115082	     -2.81680616	     -4.59923396	     18.20981046	    -10.75727536	      0.19123448	     50.78846165	     50.78846165	     10.55776286	    -16.72567377	     -1.38959354	    -11.69431186	      5.00644958	      2.88792546	     -1.17125337	    -15.26985187	      1.58881264	     30.34422109	     45.71561862	      0.00000000	      0.00000000	      4.99219138	    -10.35014083	    -12.07387825	     85.09910411	     47.01684160	      0.00000000	      0.00000000
     38.94664286	     -6.46646064	     -4.08570024	      3.16119333	      1.03668622	      0.92188713	      0.47423295	     23.13885795	     -0.11380784	    -17.49619680	     18.85569753	     18.85569753	      4.97892414	     -1.45411490	     -5.24402593	     20.13313454	    -10.87074901	      0.68491543	     53.95479709	     53.95479709	     10.89393281	    -17.02707619	      3.05108369	    -11.64066441	      5.08370712	      2.99199147	      0.79810311	    -15.21464050	      2.44679296	     29.97096280	     45.70824109	      0.00000000	      0.00000000	      4.97764521	    -10.03633053	    -11.40417271	     81.50876212	     46.98084541	      0.00000000	      0.00000000
     38.95871429	     -6.39758358	     -4.23449875	      3.28428049	      1.03558198	      0.92286485	      0.47654341	     22.34141408	      0.20400207	    -18.02977965	     18.33251619	     18.33251619	      5.26178450	     -0.66049514	     -5.56554704	     22.01121508	    -11.23705632	      0.97526914	     56.69011995	     56.69011995	     11.02059693	    -17.30094181	      5.99354669	    -11.68146672	      5.27220688	      2.97846784	      2.70630688	    -15.21543869	      2.88099554	     30.25781103	     45.70017244	      0.00000000	      0.00000000	      4.52637546	     -9.80226654	    -10.65802384	     79.16783119	     46.95253852	      0.00000000	      0.00000000
     38.97078571	     -6.35540653	     -4.39140231	      3.37305566	      1.03437914	      0.92377408	      0.47886945	     21.53925242	      0.58137913	    -18.46550512	     17.71530845	     17.71530845	      5.56483579	      0.11781007	     -5.71452333	     23.79786443	    -11.65802205	      1.10512000	     58.84931973	     58.84931973	     10.73376930	    -17.71791795	      7.14755781	    -11.72343798	      5.42428729	      2.85520668	      4.68542734	    -15.09051039	      3.01320870	     30.82644549	     45.69184724	      0.00000000	      0.00000000	      3.89176604	     -9.65680914	    -10.10082091	     76.96225642	     46.90153175	      0.00000000	      0.00000000
